<svg width="65" height="72" viewBox="0 0 65 72" fill="none" xmlns="http://www.w3.org/2000/svg">
<path id="Union" fill-rule="evenodd" clip-rule="evenodd" d="M43.6642 0H50.7753V7.11042H57.8866H64.9976H64.9977V71.1104H64.9976V71.1111H0.997559V71.1104V64V28.4446V21.3335V14.2215V7.11042H8.10867H15.22V0H22.3311V7.11042H43.6642V0ZM15.22 14.2215V14.2222H22.3311V14.2215H43.6642V14.2222H50.7753V14.2215H57.8866V21.3335H8.10867V14.2215H15.22ZM8.10867 28.4446V64H57.8866V28.4446H8.10867ZM15.22 35.5563H22.3311V42.6674H15.22V35.5563ZM36.5529 35.5563H29.4418V42.6674H36.5529V35.5563ZM43.6642 35.5563H50.7753V42.6674H43.6642V35.5563ZM22.3311 49.7769H15.22V56.888H22.3311V49.7769ZM29.4418 49.7769H36.5529V56.888H29.4418V49.7769ZM50.7754 49.7769H43.6642V56.888H50.7754V49.7769Z" fill="black"/>
</svg>
