<svg width="65" height="64" viewBox="0 0 65 64" fill="none" xmlns="http://www.w3.org/2000/svg">
<path id="Union" fill-rule="evenodd" clip-rule="evenodd" d="M35.6637 0H30.3303V5.3335H24.9974V10.6665H19.6646V15.9998H24.9979V10.6668H30.3303V29.3335H0.997437V34.6668H6.33032V39.9998H11.6637V34.6668H30.3303V53.3335H24.9974V58.6668H30.3303V64H35.6637V34.6668H54.3303V39.9998H59.6637V34.6668H64.9974V29.3335H35.6637V0ZM35.6646 5.3335H40.9979V10.6665H46.3308V15.9998H40.9974V10.6668H35.6646V5.3335ZM11.6646 18.6665H16.9979V23.9998H11.6646V18.6665ZM11.6637 24H6.33034V29.3333H11.6637V24ZM16.9979 40H11.6645V45.3333H16.9979V40ZM19.6645 48H24.9979V53.3333H19.6645V48ZM35.6646 53.3335H40.9979V58.6668H35.6646V53.3335ZM46.3308 48H40.9974V53.3333H46.3308V48ZM48.9974 40H54.3308V45.3333H48.9974V40ZM54.3303 24H59.6637V29.3333H54.3303V24ZM54.3308 18.6665H48.9974V23.9998H54.3308V18.6665Z" fill="black"/>
</svg>
