<svg width="65" height="64" viewBox="0 0 65 64" fill="none" xmlns="http://www.w3.org/2000/svg">
<path id="Union" fill-rule="evenodd" clip-rule="evenodd" d="M15.2198 0H50.7754L50.7754 7.11042H57.8865V14.2215H50.7754L50.7754 7.11111H15.2198V14.2215H8.10872V7.11042H15.2198V0ZM15.2198 56.8896H50.7754V64.0007H15.2198V56.8896ZM64.9976 14.2231H57.8865V49.7769H50.7754V56.888H57.8865V49.7787H64.9976V14.2231ZM0.997437 14.2231H8.10855V49.7787H0.997437V14.2231ZM29.4419 39.1104H22.3308V46.2215H29.4417V49.7776H36.5528V42.6665H29.4419V39.1104ZM36.5532 39.1104H43.6643V46.2215H36.5532V39.1104ZM15.2198 49.7769H8.10874V56.888H15.2198V49.7769ZM47.2203 21.3335H40.1092V28.4446H47.2203V21.3335ZM18.7754 21.3335H25.8865V28.4446H18.7754V21.3335Z" fill="black"/>
</svg>
