<svg width="65" height="64" viewBox="0 0 65 64" fill="none" xmlns="http://www.w3.org/2000/svg">
<path id="Union" fill-rule="evenodd" clip-rule="evenodd" d="M39.3967 0H26.5967V6.39941H20.1969V12.7994H26.5969V6.4H39.3967V0ZM20.1967 12.8003H13.7967V19.1997H7.397V25.5997H13.797V19.2003H20.1967V12.8003ZM7.39683 25.6006H0.996826V32.0006H7.39683V25.6006ZM13.797 57.6V32H7.397V64H29.797V44.8H36.197V64H58.597V32.0006H64.9967V25.6006H58.5967V32H52.197V57.6H42.597V38.4H23.397V57.6H13.797ZM45.797 6.39941H39.397V12.7994H45.797V6.39941ZM45.7967 12.8003H52.1967V19.2003H45.7967V12.8003ZM58.5969 19.1997H52.1969V25.5997H58.5969V19.1997Z" fill="black"/>
</svg>
