<svg width="64" height="72" viewBox="0 0 64 72" fill="none" xmlns="http://www.w3.org/2000/svg">
<path id="Union" fill-rule="evenodd" clip-rule="evenodd" d="M63.9999 0H64.0001V7.11111H63.9999V64H64.0001V71.1111H63.9999H56.8888H7.11123H0.00012207V64V7.11111V0H7.11123H56.8888H63.9999ZM56.8888 7.11111H7.11123V64H56.8888V7.11111ZM12.7491 32L17.7775 26.9717L22.0697 31.2639L26.3619 26.9717L30.6534 31.2632L34.9449 26.9717L39.9733 32L34.9449 37.0283L30.6534 32.7368L26.3619 37.0283L22.0697 32.7361L17.7775 37.0283L12.7491 32ZM17.7784 42.667L12.7501 47.6953L17.7784 52.7236L22.0702 48.4319L26.3619 52.7236L31.3902 47.6953L26.3619 42.667L22.0702 46.9587L17.7784 42.667ZM12.7501 15.6953L17.7784 10.667L22.0702 14.9587L26.3619 10.667L30.6534 14.9585L34.9449 10.667L39.5424 15.2644L44.1398 10.667L49.1681 15.6953L44.1398 20.7236L39.5424 16.1262L34.9449 20.7236L30.6534 16.4321L26.3619 20.7236L22.0702 16.4319L17.7784 20.7236L12.7501 15.6953Z" fill="black"/>
</svg>
