<svg width="65" height="89" viewBox="0 0 65 89" fill="none" xmlns="http://www.w3.org/2000/svg">
<path id="Union" fill-rule="evenodd" clip-rule="evenodd" d="M37.5687 88.6162H28.4258V79.7559H19.2832V62.0328L28.4261 62.0328V79.7547H37.5687V88.6162ZM55.8547 17.7246H46.7119L46.7119 8.86307H55.8547V17.7246ZM19.2837 8.8614H46.7123V-0.000137329H19.2837L19.2837 8.8614ZM46.7123 79.7559H37.5694V62.0328H46.7123V79.7559ZM46.7119 62.0322H55.8547L55.8547 44.3092H46.7119L46.7119 62.0322ZM64.9978 44.3085H55.8549V17.7239H64.9978L64.9978 44.3085ZM19.2831 17.7246H10.1407V44.3085H0.997803L0.997803 17.7239L10.1402 17.7239V8.86307H19.2831V17.7246ZM19.2831 62.0322H10.1402L10.1402 44.3092H19.2831L19.2831 62.0322ZM39 27L26 27V39L39 39V27Z" fill="black"/>
</svg>
