<svg width="64" height="64" viewBox="0 0 64 64" fill="none" xmlns="http://www.w3.org/2000/svg">
<path id="Union" fill-rule="evenodd" clip-rule="evenodd" d="M14.2223 0H49.7779V7.11111H14.2223V0ZM14.2223 56.8887H49.7778V63.9998H14.2223V56.8889H7.11123V49.7778H14.2223V56.8887ZM7.11123 49.7778H0.00012207V14.2222H7.11121V7.11133H14.2223V14.2224H7.11123V49.7778ZM64.0001 14.2222H56.8891V7.11133H49.778V14.2224H56.889V49.7778H49.7779V56.8889H56.889V49.7778H64.0001V14.2222ZM42.8177 28.4445L47.942 33.375L43.0115 38.4993L37.8872 33.5688L42.8177 28.4445ZM37.8873 33.5693L32.763 28.6389L27.8326 33.7632L32.9569 38.6936L37.8873 33.5693ZM22.7083 28.8317L27.8326 33.7622L22.9021 38.8865L17.7778 33.956L22.7083 28.8317Z" fill="black"/>
</svg>
