<svg width="64" height="65" viewBox="0 0 64 65" fill="none" xmlns="http://www.w3.org/2000/svg">
<path id="Union" fill-rule="evenodd" clip-rule="evenodd" d="M0.00012207 20.2L0.00012207 26.6H6.40012V20.2H0.00012207ZM6.40027 13.7987L6.40027 20.1987H12.8L12.8 58.6H19.2L19.2 20.1987H25.6003V13.7987H19.2V7.4H12.8V13.7987H6.40027ZM25.5999 26.6V20.2H31.9999V26.6H25.5999ZM19.2002 65V58.6H35.2002V65H19.2002ZM57.6 52.1998V45.7998H51.2002V7.39844H44.8002V45.7998H38.4V52.1998H44.8002V58.5984H51.2002V52.1998H57.6ZM64.0001 39.3984V45.7984H57.6001V39.3984H64.0001ZM38.4003 45.7984V39.3984H32.0003V45.7984H38.4003ZM44.8 7.39844L44.8 0.998436H28.8V7.39844H44.8Z" fill="black"/>
</svg>
